<svg xmlns="http://www.w3.org/2000/svg" width="512" height="512" viewBox="0 0 512 512">
  <title>Estação multifunções</title>
  <g fill="none" stroke="#fff" stroke-width="7.5" stroke-linecap="round" stroke-linejoin="round">

    <path d="M172 128c-2 92-3 184-4 276"/>
    <path d="M300 126c1 92 1 184 2 276"/>
    <path d="M210 106c-1 86-2 172-2 258"/>
    <path d="M338 106c1 86 2 172 2 258"/>

    <path d="M172 128c43-1 86-1 128-2"/>
    <path d="M210 106c43-1 86-1 128 0"/>
    <path d="M172 128l38-22M300 126l38-20"/>

    <path d="M152 404c54-1 108-1 160-2"/>
    <path d="M190 366c54-1 108-1 160 0"/>
    <path d="M168 404l40-38M302 402l38-38"/>

    <path d="M120 94c84-2 168-2 250-1"/>
    <path d="M120 94c-9 7-17 14-25 22M370 93c9 7 17 14 25 22"/>

    <path d="M200 200c28-1 56-1 84 0 1 55 1 110 0 164-28 1-56 1-84 0-1-55-1-110 0-164z"/>
    <path d="M200 200l24-16c28-1 56-1 84 0-1 55-1 110 0 164l-24 16"/>
    <path d="M200 240h84M200 282h84M200 324h84"/>

    <path d="M306 180c34 6 58 20 72 44"/>
    <path d="M306 248c34-6 58-20 72-44"/>
    <path d="M380 164v42" stroke-width="17"/>
    <path d="M380 222v42" stroke-width="17"/>

    <path d="M318 212c12-4 24-7 36-10 1 42 1 84 0 126-12 3-24 6-36 9z"/>
    <path d="M318 334c12-3 24-6 36-9 16 5 32 10 48 16-16 4-32 8-48 12z"/>

    <path d="M372 360c11 8 22 15 32 24"/>
    <path d="M380 384h56" stroke-width="19"/>
    <path d="M380 424h56" stroke-width="19"/>
    <path d="M404 388v36"/>

    <path d="M152 404c-17 5-28 14-34 27"/>
    <path d="M312 402c23 6 38 17 46 31"/>
  </g>
</svg>
